# xmcd CD database file
#
# Track frame offsets:
#       150
#       13197
#       35350
#       49630
#       61712
#       76242
#       93697
#       110002
#       127235
#       141920
#       153217
#       165482
#       180025
#       193462
#       205330
#       222340
#       235057
#       244710
#
# Disc length: 3467 seconds
#
# Revision: 0
# Processed by: cddbd v1.5.1PL0 Copyright (c) Steve Scherf et al.
# Submitted via: jack 3.1.1
#
DISCID=f60d8912
DTITLE=Country Current - Sugarland Run
DYEAR=1900
DGENRE=
TTITLE0=Rocky Top
TTITLE1=City Of New Orleans
TTITLE2=King Of Broken Hearts
TTITLE3=Oh Lonesome Me
TTITLE4=Down In The Boondocks
TTITLE5=Sweet Baby James
TTITLE6=Hey Good Lookin'
TTITLE7=High On A Mountaintop
TTITLE8=I'm So Lonesome I Could Cry
TTITLE9=Little Whitewashed Chimney
TTITLE10=Big Spike Hammer
TTITLE11=A Good Woman's Love
TTITLE12=I've Waited As Long As I Can
TTITLE13=Heart Of Caroline
TTITLE14=Prisoner's Song
TTITLE15=I'm Gonna Be (500 Miles)
TTITLE16=Sugarland Run
TTITLE17=Every Time It Snows
EXTD=
EXTT0=
EXTT1=
EXTT2=
EXTT3=
EXTT4=
EXTT5=
EXTT6=
EXTT7=
EXTT8=
EXTT9=
EXTT10=
EXTT11=
EXTT12=
EXTT13=
EXTT14=
EXTT15=
EXTT16=
EXTT17=
PLAYORDER=
